Coordinates
version=1
nRows=8
nColumns=63
inDegrees=yes

Units are S.I. units (second, meters, Newtons, ...)
If the header above contains a line with 'inDegrees', this indicates whether rotational values are in degrees (yes) or radians (no).

endheader
time	pelvis_tilt	pelvis_list	pelvis_rotation	pelvis_tx	pelvis_ty	pelvis_tz	hip_flexion_r	hip_adduction_r	hip_rotation_r	knee_angle_r	knee_angle_r_beta	ankle_angle_r	subtalar_angle_r	mtp_angle_r	hip_flexion_l	hip_adduction_l	hip_rotation_l	knee_angle_l	knee_angle_l_beta	ankle_angle_l	subtalar_angle_l	mtp_angle_l	L5_S1_Flex_Ext	L5_S1_Lat_Bending	L5_S1_axial_rotation	L4_L5_Flex_Ext	L4_L5_Lat_Bending	L4_L5_axial_rotation	L3_L4_Flex_Ext	L3_L4_Lat_Bending	L3_L4_axial_rotation	L2_L3_Flex_Ext	L2_L3_Lat_Bending	L2_L3_axial_rotation	L1_L2_Flex_Ext	L1_L2_Lat_Bending	L1_L2_axial_rotation	L1_T12_Flex_Ext	L1_T12_Lat_Bending	L1_T12_axial_rotation	Abs_r3	Abs_r2	Abs_r1	Abs_t1	Abs_t2	neck_flexion	neck_bending	neck_rotation	arm_flex_r	arm_add_r	arm_rot_r	elbow_flex_r	pro_sup_r	wrist_flex_r	wrist_dev_r	arm_flex_l	arm_add_l	arm_rot_l	elbow_flex_l	pro_sup_l	wrist_flex_l	wrist_dev_l
0.000000	-0.706154	-5.781547	92.322352	0.278031	0.717349	0.904667	4.424513	0.001540	0.154082	8.270849	0.144354	19.337495	1.591498	0.000000	1.932027	0.039763	-7.187896	5.321237	0.092873	20.579611	1.257234	0.000000	0.035560	-0.013527	1.456166	0.066039	-0.017992	1.547177	0.058422	-0.032891	1.547177	0.040642	-0.032891	1.274145	0.033021	-0.027585	1.183135	0.020319	-0.020954	1.092125	0.254004	-0.153026	8.098759	0.000000	0.000000	22.992547	-1.805876	1.204339	19.282132	10.270333	219.360767	0.391309	16.819165	-30.628265	-15.315012	18.830485	-6.162377	83.971048	36.803485	38.140770	-7.162673	-2.688271
0.016949	-0.865430	-5.846569	92.851896	0.277580	0.717647	0.905250	4.380782	-0.191412	-0.279788	8.255928	0.144093	19.490931	1.526053	0.000000	2.260241	0.039216	-8.120712	5.673338	0.099018	20.939844	3.132394	0.000000	0.042808	-0.040439	1.362890	0.079499	-0.053783	1.448071	0.070330	-0.098322	1.448071	0.048926	-0.098322	1.192529	0.039752	-0.082462	1.107348	0.024461	-0.062639	1.022168	0.305775	-0.457449	7.579987	0.000000	0.000000	22.650015	-2.124667	0.503776	19.465718	10.239881	218.198036	0.420397	15.240320	-30.311100	-15.590100	19.804224	-6.045908	87.658392	37.095732	34.386240	-7.781653	-4.228306
0.033898	-0.994566	-5.907700	93.338898	0.277156	0.717837	0.905817	4.353647	-0.357016	-0.770597	8.234694	0.143723	19.685023	1.634809	0.000000	2.560897	0.038263	-8.864967	5.977209	0.104322	21.278708	4.722406	0.000000	0.049777	-0.062678	1.277084	0.092441	-0.083362	1.356902	0.081779	-0.152395	1.356902	0.056890	-0.152395	1.117449	0.046223	-0.127813	1.037631	0.028443	-0.097088	0.957813	0.355552	-0.709026	7.102758	0.000000	0.000000	22.415225	-2.393386	-0.099268	19.634059	10.217045	217.254694	0.443670	13.998123	-29.991198	-15.860922	20.644044	-5.931729	90.821213	37.329111	31.003765	-8.228895	-5.517570
0.050847	-1.096964	-5.964582	93.782512	0.276763	0.717929	0.906362	4.340841	-0.497758	-1.305228	8.208560	0.143266	19.912370	1.893859	0.000000	2.833879	0.037520	-9.442120	6.235590	0.108832	21.597020	6.051609	0.000000	0.056441	-0.080740	1.198783	0.104817	-0.107384	1.273707	0.092728	-0.196310	1.273707	0.064507	-0.196310	1.048935	0.052411	-0.164644	0.974011	0.032251	-0.125066	0.899087	0.403155	-0.913342	6.667272	0.000000	0.000000	22.277971	-2.612763	-0.609902	19.787730	10.201543	216.511220	0.461628	13.067174	-29.674538	-16.125364	21.358386	-5.821569	93.496109	37.509270	27.973480	-8.521596	-6.579193
0.067797	-1.176025	-6.016859	94.181895	0.276407	0.717935	0.906880	4.340094	-0.616126	-1.870567	8.178939	0.142749	20.165567	2.279292	0.000000	3.079073	0.037601	-9.873626	6.451223	0.112595	21.895597	7.144341	0.000000	0.062777	-0.095117	1.128023	0.116583	-0.126506	1.198525	0.103136	-0.231268	1.198525	0.071747	-0.231268	0.987020	0.058294	-0.193963	0.916519	0.035871	-0.147337	0.846018	0.448407	-1.075985	6.273728	0.000000	0.000000	22.228043	-2.783527	-1.033234	19.927311	10.193096	215.948094	0.474770	12.422073	-29.367097	-16.381311	21.955692	-5.717159	95.719676	37.641860	25.275516	-8.676954	-7.436304
0.084746	-1.235152	-6.064171	94.536201	0.276093	0.717867	0.907365	4.349137	-0.714605	-2.453498	8.147244	0.142196	20.437214	2.767200	0.000000	3.296364	0.039120	-10.180943	6.626847	0.115660	22.175258	8.024942	0.000000	0.068758	-0.106305	1.064841	0.127690	-0.141385	1.131393	0.112962	-0.258469	1.131393	0.078583	-0.258469	0.931736	0.063849	-0.216776	0.865183	0.039288	-0.164666	0.798631	0.491130	-1.202539	5.922324	0.000000	0.000000	22.255235	-2.906408	-1.374371	20.053377	10.191424	215.545797	0.483596	12.037420	-29.074853	-16.626651	22.444403	-5.620230	97.528512	37.732531	22.890006	-8.712165	-8.112031
0.101695	-1.277745	-6.106162	94.844585	0.275828	0.717736	0.907811	4.365701	-0.795682	-3.040905	8.114888	0.141632	20.719908	3.333674	0.000000	3.485637	0.042694	-10.385528	6.765205	0.118075	22.436821	8.717750	0.000000	0.074360	-0.114796	1.009271	0.138094	-0.152678	1.072350	0.122166	-0.279114	1.072350	0.084986	-0.279114	0.883112	0.069051	-0.234091	0.820033	0.042489	-0.177819	0.756953	0.531146	-1.298592	5.613261	0.000000	0.000000	22.349338	-2.982138	-1.638421	20.166507	10.196246	215.284808	0.488605	11.887814	-28.803782	-16.859267	22.832961	-5.532512	98.959215	37.786931	20.797083	-8.644427	-8.629504
0.118644	-1.307207	-6.142474	95.106203	0.275617	0.717554	0.908212	4.387518	-0.861843	-3.619674	8.083284	0.141080	21.006246	3.954805	0.000000	3.646775	0.048935	-10.508838	6.869035	0.119887	22.681102	9.247105	0.000000	0.079558	-0.121084	0.961350	0.147747	-0.161042	1.021434	0.130706	-0.294404	1.021434	0.090927	-0.294404	0.841181	0.073878	-0.246915	0.781097	0.045459	-0.187559	0.721012	0.568275	-1.369729	5.346738	0.000000	0.000000	22.500145	-3.011444	-1.830493	20.267277	10.207283	215.145607	0.490297	11.947856	-28.559863	-17.077048	23.129809	-5.455735	100.048380	37.810712	18.976878	-8.490935	-9.011851
